<svg display="none" xmlns="http://www.w3.org/2000/svg">
    <symbol id="yaco" viewBox="0 0 41 47">
        <g>
            <path fill-rule="evenodd" clip-rule="evenodd"
                d="M6 0L13.0078 6.63413L0 6.62646V38.8137H34V26.507L41 33.1338V0H6ZM33.6924 25.7283L13.8226 6.91796H33.6924V25.7283ZM27.5231 34.1055H5.38008V12.4579H6.9453V32.6397H27.5231V34.1055ZM10.6089 43.0991L9.79102 44.7837L8.97314 43.0991H8.28711L9.48096 45.3452V46.6538H10.1011V45.3452L11.2925 43.0991H10.6089ZM11.6367 46.6538L11.9248 45.8262H13.3018L13.5923 46.6538H14.2368L12.8916 43.0991H12.3374L10.9946 46.6538H11.6367ZM12.6133 43.8535L13.1284 45.3281H12.0981L12.6133 43.8535ZM15.8701 45.2427C15.7806 45.3794 15.7358 45.5299 15.7358 45.6943C15.7358 45.9938 15.8408 46.2371 16.0508 46.4243C16.2624 46.6099 16.5439 46.7026 16.8955 46.7026C17.2471 46.7026 17.5498 46.6074 17.8037 46.417L18.0039 46.6538H18.6924L18.1699 46.0361C18.375 45.7562 18.4775 45.3973 18.4775 44.9595H17.9624C17.9624 45.1987 17.9128 45.416 17.8135 45.6113L17.1274 44.8008L17.3691 44.625C17.54 44.5013 17.6629 44.3776 17.7378 44.2539C17.8127 44.1286 17.8501 43.9919 17.8501 43.8438C17.8501 43.6191 17.7671 43.4312 17.6011 43.2798C17.4367 43.1268 17.2251 43.0503 16.9663 43.0503C16.6798 43.0503 16.452 43.1317 16.2827 43.2944C16.1134 43.4556 16.0288 43.6753 16.0288 43.9536C16.0288 44.0675 16.0557 44.1855 16.1094 44.3076C16.1647 44.4297 16.2616 44.5778 16.3999 44.752C16.1362 44.9408 15.9596 45.1043 15.8701 45.2427ZM17.4741 46.0288C17.3 46.1623 17.1128 46.229 16.9126 46.229C16.7352 46.229 16.5936 46.1777 16.4878 46.0752C16.382 45.9727 16.3291 45.8392 16.3291 45.6748C16.3291 45.4844 16.4268 45.3151 16.6221 45.167L16.6978 45.1133L17.4741 46.0288ZM16.8369 44.4541C16.6693 44.2474 16.5854 44.0757 16.5854 43.939C16.5854 43.8201 16.6196 43.7217 16.688 43.6436C16.7563 43.5654 16.8483 43.5264 16.9639 43.5264C17.0713 43.5264 17.16 43.5597 17.23 43.6265C17.3 43.6916 17.335 43.7705 17.335 43.8633C17.335 44.0033 17.2845 44.118 17.1836 44.2075L17.1079 44.2686L16.8369 44.4541ZM22.623 46.3853C22.8672 46.172 23.0072 45.8758 23.043 45.4966H22.4277C22.3952 45.7505 22.3179 45.932 22.1958 46.041C22.0737 46.1501 21.8914 46.2046 21.6489 46.2046C21.3836 46.2046 21.1818 46.1037 21.0435 45.9019C20.9067 45.7 20.8384 45.4071 20.8384 45.0229V44.708C20.8416 44.3288 20.9149 44.0415 21.0581 43.8462C21.203 43.6493 21.4097 43.5508 21.6782 43.5508C21.9093 43.5508 22.0843 43.6077 22.2031 43.7217C22.3236 43.834 22.3984 44.0179 22.4277 44.2734H23.043C23.0039 43.8844 22.8647 43.5833 22.6255 43.3701C22.3862 43.1569 22.0705 43.0503 21.6782 43.0503C21.3869 43.0503 21.1297 43.1195 20.9067 43.2578C20.6854 43.3962 20.5153 43.5931 20.3965 43.8486C20.2777 44.1042 20.2183 44.3996 20.2183 44.7349V45.0669C20.2231 45.394 20.2842 45.6813 20.4014 45.9287C20.5186 46.1761 20.6846 46.3674 20.8994 46.5024C21.1159 46.6359 21.3657 46.7026 21.6489 46.7026C22.0542 46.7026 22.3789 46.5968 22.623 46.3853ZM26.2534 45.8872C26.3739 45.6235 26.4341 45.3175 26.4341 44.9692V44.7715C26.4325 44.4248 26.3706 44.1213 26.2485 43.8608C26.1265 43.5988 25.9531 43.3986 25.7285 43.2603C25.5055 43.1203 25.2492 43.0503 24.9595 43.0503C24.6698 43.0503 24.4126 43.1211 24.188 43.2627C23.965 43.4027 23.7917 43.6053 23.668 43.8706C23.5459 44.1359 23.4849 44.4419 23.4849 44.7886V44.9888C23.4865 45.3289 23.5483 45.6292 23.6704 45.8896C23.7941 46.1501 23.9683 46.3511 24.1929 46.4927C24.4191 46.6326 24.6763 46.7026 24.9644 46.7026C25.2557 46.7026 25.5129 46.6326 25.7358 46.4927C25.9604 46.3511 26.133 46.1493 26.2534 45.8872ZM25.5918 43.8779C25.7415 44.0879 25.8164 44.3898 25.8164 44.7837V44.9692C25.8164 45.3696 25.7423 45.674 25.5942 45.8823C25.4478 46.0907 25.2378 46.1948 24.9644 46.1948C24.6942 46.1948 24.4826 46.0882 24.3296 45.875C24.1782 45.6618 24.1025 45.3599 24.1025 44.9692V44.7642C24.1058 44.3817 24.1823 44.0863 24.332 43.8779C24.4834 43.668 24.6925 43.563 24.9595 43.563C25.2329 43.563 25.4437 43.668 25.5918 43.8779Z" />
        </g>
    </symbol>
    <symbol id="taglinehere" viewBox="0 0 40 52">
        <g>
            <path fill-rule="evenodd" clip-rule="evenodd"
                d="M17.1136 2.93452H16.977C16.7671 2.92181 16.5571 2.91672 16.3471 2.91163H16.3471H16.3269H15.8918C15.4946 2.91163 15.0898 2.92181 14.6876 2.94215C14.6573 2.93994 14.6269 2.93994 14.5966 2.94215C10.9522 3.14863 7.38171 4.05951 4.08049 5.62492L3.6479 5.83344V27.9746L4.65979 27.6313C5.54773 27.3261 6.49384 27.0515 7.47285 26.7972C10.1193 26.1178 12.8367 25.7567 15.568 25.7216V28.6306C15.2062 28.6332 14.8546 28.6434 14.503 28.6612H14.4195C12.3175 28.7765 10.2317 29.0967 8.19129 29.6173C5.60716 30.2643 3.11433 31.2357 0.771606 32.5086V4.11189C3.20469 2.69275 5.82533 1.62687 8.55557 0.945963C10.9527 0.327052 13.4169 0.00930695 15.8918 0H16.3193C16.8303 0.0127146 17.3287 0.0356008 17.7967 0.0712015C19.0297 0.157776 20.2528 0.352628 21.4521 0.653528V3.51685C20.2874 3.24551 19.1032 3.06695 17.9105 2.98284C17.8863 2.98079 17.8621 2.97872 17.8379 2.97666C17.5911 2.95561 17.344 2.93452 17.1136 2.93452ZM22.1528 5.86138C22.7877 5.9097 23.4455 5.93259 24.1108 5.93259C26.7125 5.92307 29.3031 5.59083 31.8239 4.94339C34.4068 4.29396 36.8986 3.32178 39.2411 2.04956V29.9402C36.8067 31.3585 34.1853 32.4243 31.4546 33.1061C29.0571 33.7227 26.5931 34.0395 24.1184 34.0496C22.2433 34.0647 20.3737 33.8443 18.553 33.3935V5.32229C18.983 5.42146 19.4257 5.51301 19.876 5.58929C20.6147 5.7139 21.3939 5.80544 22.1528 5.86138ZM36.3471 6.07753L35.3352 6.41828C34.4042 6.73106 33.4657 7.01078 32.5221 7.25998C29.7749 7.96596 26.9514 8.3281 24.1158 8.33818C23.4556 8.33818 22.8485 8.32038 22.2616 8.28224L21.4546 8.22883V28.3178V31.0057L22.1477 31.0667C22.7903 31.1227 23.4531 31.1506 24.1209 31.1506C26.3544 31.1412 28.5781 30.8533 30.7412 30.2937C32.5223 29.8469 34.2552 29.2243 35.9145 28.4348L36.3471 28.2263V6.07753Z" />
            <path
                d="M2.73713 42.2124C2.59166 42.0615 2.41629 41.943 2.22236 41.8646C2.02844 41.7862 1.82029 41.7496 1.61141 41.7572C1.38879 41.7542 1.16781 41.7957 0.961267 41.8793C0.771901 41.9547 0.599767 42.068 0.455322 42.2124C0.312451 42.3572 0.201292 42.5304 0.128988 42.721C0.0496792 42.9207 0.0101425 43.1341 0.0126205 43.3491V47.1431C0.00357283 47.4104 0.0545882 47.6764 0.161874 47.9212C0.251433 48.1156 0.380725 48.2889 0.541333 48.4298C0.692953 48.5575 0.870978 48.6495 1.06246 48.6994C1.24694 48.7512 1.43755 48.7777 1.62911 48.7782C1.84041 48.7803 2.04953 48.7351 2.24131 48.646C2.43095 48.563 2.60277 48.4438 2.74725 48.295C2.88814 48.1476 3.00052 47.9752 3.07865 47.7864C3.15973 47.5951 3.20105 47.3892 3.20007 47.1812V46.7566H2.20842V47.0948C2.21137 47.2103 2.1916 47.3252 2.15024 47.433C2.11794 47.5137 2.06877 47.5866 2.00604 47.6466C1.94461 47.6962 1.87416 47.7334 1.79861 47.7559C1.73164 47.7782 1.6617 47.7902 1.59117 47.7915C1.50263 47.8018 1.41296 47.7885 1.33122 47.7527C1.24948 47.717 1.17858 47.6602 1.1257 47.5881C1.03222 47.4356 0.986395 47.2585 0.994154 47.0795V43.5423C0.988002 43.3462 1.02969 43.1515 1.11558 42.9753C1.16706 42.8952 1.2399 42.8313 1.32578 42.7908C1.41166 42.7503 1.50713 42.7349 1.60129 42.7464C1.68676 42.7434 1.7717 42.7612 1.8488 42.7984C1.92591 42.8356 1.99289 42.8911 2.04399 42.96C2.15496 43.1057 2.21298 43.2852 2.20842 43.4686V43.7966H3.18995V43.4101C3.19195 43.1831 3.15073 42.9578 3.06853 42.7464C2.99527 42.5476 2.88251 42.3659 2.73713 42.2124Z" />
            <path
                d="M8.62892 42.1691C8.31271 41.9021 7.91362 41.7546 7.50066 41.7521C7.29868 41.7529 7.09838 41.7891 6.9087 41.8589C6.71613 41.9279 6.53841 42.0332 6.38505 42.1691C6.22076 42.3168 6.08968 42.498 6.00053 42.7006C5.90063 42.9323 5.85146 43.183 5.85634 43.4355V47.0744C5.8495 47.3304 5.89873 47.5847 6.00053 47.8195C6.09028 48.0151 6.22152 48.1887 6.38505 48.328C6.53665 48.4688 6.71468 48.5777 6.9087 48.6485C7.09838 48.7183 7.29868 48.7544 7.50066 48.7553C7.70269 48.7549 7.90307 48.7187 8.09262 48.6485C8.28995 48.5767 8.47195 48.468 8.62892 48.328C8.7871 48.1861 8.91454 48.013 9.00332 47.8195C9.10512 47.5847 9.15435 47.3304 9.14751 47.0744V43.4355C9.15239 43.183 9.10322 42.9323 9.00332 42.7006C8.91505 42.5001 8.78775 42.3194 8.62892 42.1691ZM8.16598 47.0744C8.17434 47.1714 8.16095 47.269 8.1268 47.3601C8.09265 47.4512 8.03861 47.5334 7.96866 47.6008C7.83768 47.7106 7.67251 47.7708 7.50193 47.7708C7.33135 47.7708 7.16617 47.7106 7.03519 47.6008C6.96524 47.5334 6.9112 47.4512 6.87705 47.3601C6.8429 47.269 6.82952 47.1714 6.83787 47.0744V43.4355C6.82952 43.3385 6.8429 43.2409 6.87705 43.1498C6.9112 43.0587 6.96524 42.9764 7.03519 42.9091C7.16617 42.7993 7.33135 42.7391 7.50193 42.7391C7.67251 42.7391 7.83768 42.7993 7.96866 42.9091C8.03861 42.9764 8.09265 43.0587 8.1268 43.1498C8.16095 43.2409 8.17434 43.3385 8.16598 43.4355V47.0744Z" />
            <path
                d="M16.3673 48.6994V41.8107H15.4136L14.1614 45.4572H14.1437L12.8813 41.8107H11.9377V48.6994H12.9218V44.5087H12.9395L13.9033 47.4712H14.3941L15.3655 44.5087H15.3832V48.6994H16.3673Z" />
            <path
                d="M21.9581 42.2937C21.8065 42.1237 21.6153 41.9943 21.4015 41.9173C21.1712 41.8424 20.9302 41.8063 20.6881 41.8105H19.226V48.6993H20.2075V46.0089H20.7134C21.0197 46.0228 21.3244 45.958 21.5988 45.8207C21.822 45.6968 22.0081 45.515 22.1377 45.2943C22.2512 45.1111 22.3277 44.9071 22.3628 44.6942C22.4014 44.435 22.4192 44.173 22.4159 43.911C22.4255 43.5802 22.3932 43.2495 22.3198 42.9269C22.2543 42.6885 22.1299 42.4706 21.9581 42.2937ZM21.4521 44.3941C21.4479 44.5188 21.4168 44.6412 21.361 44.7527C21.3049 44.8586 21.2162 44.9434 21.1081 44.9942C20.9627 45.0593 20.8041 45.0889 20.6451 45.0807H20.1974V42.7387H20.7033C20.8557 42.7312 21.0075 42.7609 21.146 42.8251C21.2475 42.8834 21.3281 42.9724 21.3762 43.0794C21.4299 43.2004 21.4591 43.331 21.4622 43.4634C21.4622 43.6084 21.4622 43.7609 21.4622 43.9211C21.4622 44.0813 21.4723 44.2466 21.4622 44.3941H21.4521Z" />
            <path
                d="M26.6077 41.8107H25.8032L24.2854 48.6994H25.2669L25.5553 47.2194H26.8935L27.1819 48.6994H28.1635L26.6077 41.8107ZM25.702 46.2811L26.1852 43.784H26.2029L26.6836 46.2811H25.702Z" />
            <path
                d="M32.9497 45.9607H32.932L31.4496 41.8107H30.506V48.6994H31.4875V44.557H31.5078L33.0079 48.6994H33.9312V41.8107H32.9497V45.9607Z" />
            <path
                d="M38.9476 41.8107L38.1583 44.5494H38.1381L37.3488 41.8107H36.3091L37.6574 45.7878V48.6994H38.639V45.7878L39.9873 41.8107H38.9476Z" />
            <path d="M0 50.6445H0.473058V51.9719H0.794333V50.6445H1.26486V50.3724H0V50.6445Z" />
            <path
                d="M3.97672 50.3724L3.35693 51.9719H3.69845L3.82999 51.6083H4.46748L4.60409 51.9719H4.95319L4.31823 50.3724H3.97672ZM3.92612 51.3387L4.14368 50.7462L4.36123 51.3387H3.92612Z" />
            <path
                d="M7.90793 51.3821H8.27727V51.5881C8.16941 51.6746 8.03576 51.722 7.89781 51.7229C7.8333 51.7265 7.76886 51.7145 7.70988 51.688C7.65091 51.6614 7.59911 51.6211 7.55883 51.5703C7.47402 51.4485 7.43217 51.3017 7.43993 51.1533C7.43993 50.7973 7.59424 50.6193 7.90034 50.6193C7.98091 50.6112 8.06168 50.6325 8.12804 50.6791C8.19439 50.7257 8.24194 50.7947 8.26209 50.8735L8.57831 50.8125C8.51001 50.4997 8.28486 50.3421 7.90034 50.3421C7.69468 50.3366 7.4947 50.4103 7.34127 50.5481C7.26069 50.6276 7.19834 50.7239 7.15858 50.8302C7.11882 50.9365 7.10261 51.0502 7.11107 51.1634C7.10175 51.3823 7.17493 51.5966 7.31598 51.7636C7.39434 51.8444 7.4892 51.9071 7.59401 51.9475C7.69883 51.9879 7.8111 52.0049 7.92311 51.9975C8.17338 52.0045 8.41652 51.9133 8.60108 51.7432V51.1126H7.90793V51.3821Z" />
            <path d="M11.9226 50.3724H11.5988V51.9719H12.7194V51.6998H11.9226V50.3724Z" />
            <path d="M15.3175 50.3724H14.9937V51.9719H15.3175V50.3724Z" />
            <path
                d="M18.6365 51.4405L17.9813 50.3724H17.6676V51.9719H17.9686V50.9268L18.6112 51.9719H18.9325V50.3724H18.6365V51.4405Z" />
            <path
                d="M21.6368 51.2675H22.4337V50.9954H21.6368V50.6445H22.4944V50.3724H21.313V51.9719H22.5273V51.6998H21.6368V51.2675Z" />
            <path
                d="M28.9122 51.0031H28.2823V50.3724H27.9611V51.9719H28.2823V51.2726H28.9122V51.9719H29.2335V50.3724H28.9122V51.0031Z" />
            <path
                d="M31.9302 51.2675H32.7296V50.9954H31.9302V50.6445H32.7903V50.3724H31.6089V51.9719H32.8206V51.6998H31.9302V51.2675Z" />
            <path
                d="M36.0233 51.2676C36.3015 51.2244 36.4432 51.0769 36.4432 50.8226C36.4513 50.7546 36.441 50.6856 36.4134 50.623C36.3858 50.5603 36.3419 50.5063 36.2863 50.4666C36.1415 50.3938 35.9799 50.3614 35.8183 50.3725H35.1404V51.972H35.4617V51.3032H35.5249C35.5934 51.299 35.6619 51.3112 35.7247 51.3388C35.7717 51.3678 35.8108 51.4079 35.8386 51.4558L36.1877 51.9644H36.5722L36.3774 51.6516C36.2913 51.4972 36.1699 51.3656 36.0233 51.2676ZM35.6994 51.0464H35.4617V50.6446H35.7146C35.8248 50.6357 35.9357 50.6486 36.041 50.6827C36.0644 50.7034 36.0828 50.7291 36.095 50.7579C36.1072 50.7867 36.1127 50.8179 36.1113 50.8492C36.1098 50.8804 36.1014 50.911 36.0866 50.9385C36.0718 50.966 36.051 50.9899 36.0258 51.0082C35.9202 51.0406 35.8096 51.0535 35.6994 51.0464Z" />
            <path
                d="M39.1096 51.2675H39.9064V50.9954H39.1096V50.6445H39.9697V50.3724H38.7858V51.9719H40V51.6998H39.1096V51.2675Z" />

        </g>
        <symbol id="company" viewBox="0 0 45 42">
            <g>
                <path
                    d="M7.40622 41.1014C7.42213 41.1018 7.4378 41.1049 7.45231 41.1106C7.46683 41.1163 7.47989 41.1245 7.49074 41.1346L7.70885 41.3431C7.53955 41.5118 7.33029 41.6468 7.0954 41.7388C6.82033 41.8391 6.52388 41.8875 6.22565 41.8809C5.94542 41.8859 5.66699 41.8408 5.40771 41.7482C5.17383 41.6632 4.9637 41.5356 4.79153 41.3739C4.61582 41.2062 4.48048 41.0096 4.39347 40.7958C4.29818 40.5574 4.25113 40.3065 4.25442 40.0542C4.25055 39.8003 4.30141 39.548 4.40437 39.3103C4.49962 39.0951 4.64329 38.8986 4.82698 38.7322C5.01315 38.5691 5.23586 38.4408 5.48133 38.3555C5.74986 38.265 6.03582 38.22 6.32381 38.2228C6.59132 38.2172 6.85741 38.2582 7.1063 38.3436C7.32224 38.425 7.52052 38.538 7.6925 38.6777L7.50982 38.9004C7.4972 38.9161 7.48152 38.9297 7.46347 38.9407C7.44192 38.9535 7.41587 38.9594 7.38986 38.9573C7.36156 38.9556 7.33428 38.9474 7.31079 38.9336L7.21264 38.8743L7.07631 38.7985C7.01746 38.7704 6.95643 38.7458 6.89364 38.7251C6.81277 38.6999 6.72983 38.6801 6.64553 38.6659C6.53854 38.6487 6.42986 38.6408 6.32108 38.6422C6.1137 38.6399 5.9079 38.6737 5.7158 38.7417C5.53666 38.8046 5.37495 38.8999 5.2414 39.0212C5.10545 39.1503 5.00068 39.3018 4.93331 39.4667C4.85652 39.6553 4.81868 39.8542 4.82152 40.0542C4.81825 40.2574 4.85609 40.4595 4.93331 40.6513C4.99984 40.8147 5.10266 40.9653 5.23595 41.0943C5.36082 41.2146 5.51561 41.3086 5.68854 41.3692C5.86651 41.4333 6.05754 41.4655 6.25019 41.4639C6.36148 41.4654 6.47272 41.4591 6.58282 41.445C6.76261 41.4259 6.93507 41.3716 7.08722 41.2862C7.16353 41.2425 7.23557 41.1934 7.30261 41.1393C7.33064 41.1161 7.3675 41.1026 7.40622 41.1014Z" />
                <path
                    d="M13.7043 40.0538C13.7077 40.3052 13.6578 40.5549 13.5571 40.7906C13.4682 41.0043 13.3283 41.1993 13.1464 41.3626C12.9645 41.526 12.7449 41.654 12.502 41.7382C11.9682 41.9151 11.3781 41.9151 10.8443 41.7382C10.6029 41.6527 10.3847 41.5244 10.2036 41.3615C10.0218 41.1952 9.88083 40.9986 9.78915 40.7835C9.59274 40.3063 9.59274 39.7847 9.78915 39.3076C9.88216 39.0923 10.023 38.8951 10.2036 38.7271C10.3862 38.5694 10.6043 38.446 10.8443 38.3647C11.3774 38.1846 11.9688 38.1846 12.502 38.3647C12.7442 38.4502 12.9633 38.5784 13.1454 38.7414C13.3249 38.906 13.4648 39.1001 13.5571 39.3123C13.6581 39.5495 13.708 39.8009 13.7043 40.0538ZM13.1318 40.0538C13.1361 39.8527 13.101 39.6525 13.0282 39.4615C12.9671 39.298 12.8677 39.1472 12.7364 39.0185C12.6086 38.8968 12.4512 38.8013 12.2757 38.739C11.8878 38.6095 11.4584 38.6095 11.0706 38.739C10.895 38.8013 10.7376 38.8968 10.6098 39.0185C10.4767 39.1464 10.3763 39.2974 10.3154 39.4615C10.1766 39.8472 10.1766 40.2604 10.3154 40.6461C10.3769 40.81 10.4772 40.9609 10.6098 41.0891C10.7378 41.2101 10.8952 41.3048 11.0706 41.3663C11.4591 41.4925 11.8871 41.4925 12.2757 41.3663C12.451 41.3048 12.6084 41.2101 12.7364 41.0891C12.8672 40.9601 12.9664 40.8094 13.0282 40.6461C13.1013 40.4552 13.1364 40.2549 13.1318 40.0538Z" />
                <path
                    d="M18.0013 40.6747L18.0585 40.8074C18.0803 40.76 18.0994 40.7173 18.1212 40.6747C18.142 40.6302 18.1657 40.5867 18.1921 40.5444L19.5853 38.3438C19.6126 38.3059 19.6371 38.2823 19.6644 38.2751C19.7015 38.2653 19.7402 38.2613 19.7789 38.2633H20.1906V41.8425H19.7026V39.2108C19.7026 39.1776 19.7026 39.1397 19.7026 39.0995C19.6999 39.0585 19.6999 39.0173 19.7026 38.9763L18.3012 41.2077C18.2834 41.2411 18.2549 41.2694 18.2191 41.2891C18.1833 41.3089 18.1418 41.3192 18.0994 41.319H18.0203C17.9779 41.3195 17.9362 41.3093 17.9003 41.2895C17.8645 41.2697 17.8361 41.2413 17.8186 41.2077L16.3763 38.9621C16.3763 39.0047 16.3763 39.0474 16.3763 39.09C16.3763 39.1326 16.3763 39.1705 16.3763 39.2037V41.8354H15.9046V38.2633H16.3163C16.355 38.2613 16.3937 38.2653 16.4308 38.2751C16.4646 38.2897 16.4916 38.314 16.5072 38.3438L17.9304 40.5468C17.9583 40.5875 17.9821 40.6303 18.0013 40.6747Z" />
                <path
                    d="M23.2443 40.4969V41.8376H22.699V38.2632H23.915C24.1445 38.2594 24.3734 38.2857 24.5939 38.3413C24.7704 38.3848 24.934 38.4607 25.0737 38.564C25.1948 38.6608 25.2882 38.7808 25.3464 38.9146C25.4107 39.0604 25.4422 39.2156 25.4391 39.3717C25.4415 39.5285 25.4072 39.684 25.3382 39.8289C25.2726 39.966 25.1719 40.0884 25.0437 40.1866C24.9038 40.2941 24.7394 40.3749 24.5612 40.4234C24.3489 40.4824 24.1269 40.5104 23.9041 40.5063L23.2443 40.4969ZM23.2443 40.1131H23.9041C24.0474 40.1148 24.1901 40.0964 24.3267 40.0587C24.4394 40.0257 24.5432 39.9733 24.632 39.9047C24.714 39.8391 24.7774 39.7581 24.8174 39.6678C24.8621 39.5723 24.8843 39.4701 24.8829 39.367C24.8892 39.2676 24.8706 39.1683 24.8282 39.0758C24.7858 38.9834 24.7207 38.9 24.6375 38.8317C24.4292 38.6904 24.1676 38.6219 23.9041 38.6398H23.2443V40.1131Z" />
                <path
                    d="M30.573 41.8424H30.1422C30.099 41.8438 30.0566 41.8321 30.0223 41.8092C29.9913 41.7869 29.967 41.7585 29.9514 41.7263L29.5806 40.8616H27.7184L27.334 41.7263C27.3198 41.7579 27.2963 41.7857 27.2658 41.8069C27.2312 41.8311 27.1876 41.8437 27.1431 41.8424H26.7123L28.3482 38.2628H28.9153L30.573 41.8424ZM27.8738 40.5134H29.4115L28.7626 39.0564C28.713 38.9468 28.6721 38.8344 28.64 38.72L28.5772 38.9072C28.5582 38.964 28.5363 39.0162 28.5173 39.0588L27.8738 40.5134Z" />
                <path
                    d="M32.9287 38.2795C32.9613 38.295 32.9893 38.3169 33.0105 38.3434L35.3962 41.0417C35.3962 40.9991 35.3962 40.9564 35.3962 40.9161C35.3962 40.8759 35.3962 40.8356 35.3962 40.7977V38.2629H35.8842V41.8424H35.6116C35.5728 41.8434 35.5344 41.8361 35.4998 41.8211C35.4661 41.804 35.4365 41.7815 35.4125 41.7548L33.0296 39.0589C33.0322 39.0999 33.0322 39.141 33.0296 39.1821C33.0296 39.2223 33.0296 39.2579 33.0296 39.291V41.8424H32.5416V38.2629H32.8306C32.8643 38.2621 32.8978 38.2677 32.9287 38.2795Z" />
                <path
                    d="M39.903 40.4188V41.8402H39.3577V40.4188L37.85 38.2631H38.338C38.3801 38.2609 38.4216 38.2718 38.4553 38.2938C38.4849 38.3168 38.5098 38.3441 38.5289 38.3744L39.4722 39.765C39.5104 39.8242 39.5431 39.8787 39.5704 39.9308C39.5977 39.9829 39.6195 40.0327 39.6386 40.0824L39.7094 39.9284C39.7359 39.8721 39.7669 39.8175 39.8021 39.765L40.7319 38.3649C40.7514 38.337 40.7753 38.3115 40.8028 38.2891C40.8351 38.2646 40.8771 38.2518 40.92 38.2536H41.4135L39.903 40.4188Z" />
                <path
                    d="M17.7313 32.2561C17.9685 32.2822 18.2085 32.3035 18.4511 32.3225C22.13 30.8926 25.2421 28.5523 27.3986 25.5942C29.5551 22.636 30.6602 19.1912 30.5758 15.6904L26.5215 12.1678C27.3458 15.8951 26.9602 19.7482 25.4078 23.2959C23.8554 26.8437 21.1975 29.9461 17.7313 32.2561Z" />
                <path
                    d="M16.2836 32.0923L16.3927 32.1112C20.0966 29.8094 22.9205 26.5951 24.4992 22.8839C26.0779 19.1727 26.3388 15.1353 25.2483 11.2939L19.4736 6.27673C21.8093 10.4008 22.7495 15.0162 22.1847 19.5862C21.62 24.1562 19.5737 28.493 16.2836 32.0923Z" />
                <path
                    d="M35.8679 19.8265C34.8868 23.6731 32.504 27.1423 29.0735 29.7189C28.0716 30.4755 26.9909 31.1496 25.8453 31.7324C28.6388 31.019 31.2064 29.7578 33.3502 28.046C35.4939 26.3341 37.1566 24.2174 38.2099 21.859L35.8679 19.8265Z" />
                <path
                    d="M34.949 19.2601L31.6146 16.3629C31.5508 19.666 30.47 22.894 28.4845 25.7114C26.499 28.5287 23.6813 30.8327 20.3242 32.3837H20.3406C21.0887 32.3835 21.8362 32.3447 22.579 32.2676C25.7164 31.155 28.488 29.3849 30.6464 27.1152C32.8049 24.8455 34.283 22.1469 34.949 19.2601Z" />
                <path
                    d="M16.7662 4.16091L12.7883 0.699951C9.23216 1.89391 6.17374 3.99283 4.01331 6.72203C1.85288 9.45122 0.691089 12.6835 0.679993 15.9959H0.679993C0.693321 19.656 2.1112 23.2077 4.70923 26.0888C7.30725 28.9699 10.937 31.016 15.024 31.903C18.6724 28.041 20.8085 23.2687 21.1218 18.2798C21.4351 13.2908 19.9094 8.34495 16.7662 4.16091Z" />
                <path
                    d="M44.14 18.7273C44.1256 14.3848 42.1338 10.2238 38.5996 7.15318C35.0655 4.08257 30.2763 2.35199 25.2783 2.33949C22.9687 2.33741 20.6788 2.70769 18.5248 3.43153L42.8804 24.5926C43.7143 22.7221 44.1414 20.7333 44.14 18.7273Z" />

            </g>
            <symbol id="foster" viewBox="0 0 85 42">
                <g>
                    <path
                        d="M13.1462 13.1028H13.1433C10.7453 13.1028 8.80127 14.8304 8.80127 16.9615V16.964C8.80127 19.0951 10.7453 20.8227 13.1433 20.8227H13.1462C15.5442 20.8227 17.4882 19.0951 17.4882 16.964V16.9615C17.4882 14.8304 15.5442 13.1028 13.1462 13.1028Z" />
                    <path
                        d="M45.195 11.8693C45.1882 8.90929 43.8623 6.07223 41.5074 3.97895C39.1525 1.88568 35.9604 0.706672 32.6297 0.699951V0.699951C29.298 0.705328 26.1045 1.88374 23.7484 3.97716C21.3922 6.07058 20.0655 8.90841 20.0587 11.8693V28.1921C20.0587 28.1921 45.1922 25.7044 45.195 11.8718V11.8693Z" />
                    <path
                        d="M0 33.5495C0.00604098 35.6091 0.929149 37.5828 2.56761 39.0394C4.20607 40.496 6.42668 41.317 8.74418 41.3231C11.0612 41.317 13.2814 40.4963 14.9197 39.0403C16.5581 37.5843 17.4816 35.6112 17.4884 33.552V22.1943C17.4884 22.1943 0 23.9266 0 33.5495ZM8.74418 35.5844C8.2913 35.5844 7.84859 35.4651 7.47203 35.2415C7.09548 35.0179 6.80199 34.7001 6.62868 34.3282C6.45537 33.9564 6.41002 33.5472 6.49838 33.1525C6.58673 32.7577 6.80481 32.3951 7.12505 32.1105C7.44528 31.8259 7.85328 31.6321 8.29746 31.5536C8.74164 31.4751 9.20204 31.5154 9.62045 31.6694C10.0389 31.8234 10.3965 32.0843 10.6481 32.4189C10.8997 32.7535 11.034 33.147 11.034 33.5495C11.0351 33.8173 10.9767 34.0828 10.8622 34.3306C10.7476 34.5783 10.5791 34.8036 10.3664 34.9933C10.1536 35.1831 9.90081 35.3337 9.62244 35.4364C9.34406 35.5392 9.04561 35.5921 8.74418 35.5921V35.5844Z" />
                    <path
                        d="M26.4177 34.4637H24.7302V36.2069H23.8513V31.9413H26.6286V32.6532H24.7302V33.7548H26.4177V34.4637ZM30.6423 34.1708C30.6423 34.5907 30.5681 34.9589 30.4196 35.2753C30.2712 35.5917 30.0583 35.8358 29.7809 36.0077C29.5056 36.1796 29.1891 36.2655 28.8317 36.2655C28.4782 36.2655 28.1628 36.1805 27.8854 36.0106C27.6081 35.8407 27.3932 35.5985 27.2409 35.2841C27.0886 34.9677 27.0114 34.6044 27.0095 34.1942V33.9833C27.0095 33.5634 27.0847 33.1942 27.235 32.8759C27.3874 32.5555 27.6013 32.3104 27.8766 32.1405C28.154 31.9686 28.4704 31.8827 28.8259 31.8827C29.1813 31.8827 29.4968 31.9686 29.7722 32.1405C30.0495 32.3104 30.2634 32.5555 30.4138 32.8759C30.5661 33.1942 30.6423 33.5624 30.6423 33.9803V34.1708ZM29.7516 33.9774C29.7516 33.5302 29.6716 33.1903 29.5114 32.9579C29.3513 32.7255 29.1227 32.6093 28.8259 32.6093C28.5309 32.6093 28.3034 32.7245 28.1432 32.955C27.9831 33.1835 27.902 33.5194 27.9001 33.9628V34.1708C27.9001 34.6063 27.9802 34.9442 28.1403 35.1844C28.3005 35.4247 28.5309 35.5448 28.8317 35.5448C29.1266 35.5448 29.3532 35.4296 29.5114 35.1991C29.6696 34.9667 29.7497 34.6288 29.7516 34.1854V33.9774ZM33.4929 35.0878C33.4929 34.9218 33.4343 34.7948 33.3171 34.7069C33.1999 34.6171 32.989 34.5233 32.6843 34.4257C32.3796 34.326 32.1384 34.2284 31.9606 34.1327C31.4763 33.871 31.2341 33.5184 31.2341 33.0751C31.2341 32.8446 31.2985 32.6395 31.4274 32.4598C31.5583 32.2782 31.7448 32.1366 31.987 32.035C32.2311 31.9335 32.5046 31.8827 32.8073 31.8827C33.112 31.8827 33.3835 31.9384 33.6218 32.0497C33.86 32.1591 34.0446 32.3143 34.1755 32.5155C34.3083 32.7167 34.3747 32.9452 34.3747 33.201H33.4958C33.4958 33.0057 33.4343 32.8544 33.3112 32.7469C33.1882 32.6376 33.0153 32.5829 32.7927 32.5829C32.5778 32.5829 32.4108 32.6288 32.2917 32.7206C32.1725 32.8104 32.113 32.9296 32.113 33.078C32.113 33.2167 32.1823 33.3329 32.321 33.4266C32.4616 33.5204 32.6677 33.6083 32.9391 33.6903C33.4391 33.8407 33.8034 34.0272 34.0319 34.2499C34.2604 34.4725 34.3747 34.7499 34.3747 35.0819C34.3747 35.451 34.235 35.7411 33.9557 35.952C33.6765 36.161 33.3005 36.2655 32.8278 36.2655C32.4997 36.2655 32.2009 36.2059 31.9313 36.0868C31.6618 35.9657 31.4557 35.8007 31.3132 35.5917C31.1725 35.3827 31.1022 35.1405 31.1022 34.8651H31.9841C31.9841 35.3358 32.2653 35.5712 32.8278 35.5712C33.0368 35.5712 33.1999 35.5292 33.3171 35.4452C33.4343 35.3593 33.4929 35.2401 33.4929 35.0878ZM38.1833 32.6532H36.8766V36.2069H35.9977V32.6532H34.7087V31.9413H38.1833V32.6532ZM41.2536 34.3583H39.5661V35.5009H41.5466V36.2069H38.6872V31.9413H41.5407V32.6532H39.5661V33.6698H41.2536V34.3583ZM43.6413 34.6454H42.9411V36.2069H42.0622V31.9413H43.6472C44.1511 31.9413 44.5397 32.0536 44.8132 32.2782C45.0866 32.5028 45.2233 32.8202 45.2233 33.2303C45.2233 33.5214 45.1599 33.7645 45.0329 33.9598C44.9079 34.1532 44.7175 34.3075 44.4616 34.4227L45.3845 36.1659V36.2069H44.4411L43.6413 34.6454ZM42.9411 33.9335H43.6501C43.8708 33.9335 44.0417 33.8778 44.1628 33.7665C44.2839 33.6532 44.3444 33.4979 44.3444 33.3007C44.3444 33.0995 44.2868 32.9413 44.1716 32.826C44.0583 32.7108 43.8835 32.6532 43.6472 32.6532H42.9411V33.9335ZM48.2673 34.704V36.2069H47.3884V31.9413H49.0524C49.3727 31.9413 49.654 31.9999 49.8962 32.1171C50.1403 32.2343 50.3278 32.4012 50.4587 32.618C50.5895 32.8329 50.655 33.078 50.655 33.3534C50.655 33.7714 50.5114 34.1014 50.2243 34.3436C49.9391 34.5839 49.5436 34.704 49.0378 34.704H48.2673ZM48.2673 33.9921H49.0524C49.2849 33.9921 49.4616 33.9374 49.5827 33.828C49.7057 33.7186 49.7673 33.5624 49.7673 33.3593C49.7673 33.1503 49.7057 32.9813 49.5827 32.8524C49.4597 32.7235 49.2897 32.6571 49.0729 32.6532H48.2673V33.9921ZM53.8278 34.3583H52.1403V35.5009H54.1208V36.2069H51.2614V31.9413H54.1149V32.6532H52.1403V33.6698H53.8278V34.3583ZM57.9059 32.6532H56.5993V36.2069H55.7204V32.6532H54.4313V31.9413H57.9059V32.6532ZM60.9763 34.3583H59.2888V35.5009H61.2692V36.2069H58.4099V31.9413H61.2634V32.6532H59.2888V33.6698H60.9763V34.3583ZM63.364 34.6454H62.6638V36.2069H61.7849V31.9413H63.3698C63.8737 31.9413 64.2624 32.0536 64.5358 32.2782C64.8093 32.5028 64.946 32.8202 64.946 33.2303C64.946 33.5214 64.8825 33.7645 64.7556 33.9598C64.6306 34.1532 64.4401 34.3075 64.1843 34.4227L65.1071 36.1659V36.2069H64.1638L63.364 34.6454ZM62.6638 33.9335H63.3727C63.5934 33.9335 63.7643 33.8778 63.8854 33.7665C64.0065 33.6532 64.0671 33.4979 64.0671 33.3007C64.0671 33.0995 64.0095 32.9413 63.8942 32.826C63.7809 32.7108 63.6061 32.6532 63.3698 32.6532H62.6638V33.9335ZM67.8288 35.0878C67.8288 34.9218 67.7702 34.7948 67.653 34.7069C67.5358 34.6171 67.3249 34.5233 67.0202 34.4257C66.7155 34.326 66.4743 34.2284 66.2966 34.1327C65.8122 33.871 65.57 33.5184 65.57 33.0751C65.57 32.8446 65.6345 32.6395 65.7634 32.4598C65.8942 32.2782 66.0807 32.1366 66.3229 32.035C66.5671 31.9335 66.8405 31.8827 67.1432 31.8827C67.4479 31.8827 67.7194 31.9384 67.9577 32.0497C68.196 32.1591 68.3806 32.3143 68.5114 32.5155C68.6442 32.7167 68.7106 32.9452 68.7106 33.201H67.8317C67.8317 33.0057 67.7702 32.8544 67.6472 32.7469C67.5241 32.6376 67.3513 32.5829 67.1286 32.5829C66.9138 32.5829 66.7468 32.6288 66.6276 32.7206C66.5085 32.8104 66.4489 32.9296 66.4489 33.078C66.4489 33.2167 66.5182 33.3329 66.6569 33.4266C66.7975 33.5204 67.0036 33.6083 67.2751 33.6903C67.7751 33.8407 68.1393 34.0272 68.3679 34.2499C68.5964 34.4725 68.7106 34.7499 68.7106 35.0819C68.7106 35.451 68.571 35.7411 68.2917 35.952C68.0124 36.161 67.6364 36.2655 67.1638 36.2655C66.8356 36.2655 66.5368 36.2059 66.2673 36.0868C65.9977 35.9657 65.7917 35.8007 65.6491 35.5917C65.5085 35.3827 65.4382 35.1405 65.4382 34.8651H66.32C66.32 35.3358 66.6013 35.5712 67.1638 35.5712C67.3727 35.5712 67.5358 35.5292 67.653 35.4452C67.7702 35.3593 67.8288 35.2401 67.8288 35.0878Z" />

                </g>
            </symbol>
            <symbol id="brand" viewBox="0 0 63 47">
                <g>
                    <path
                        d="M4.7569 38.7352C5.00058 39.0114 5.13038 39.3572 5.12358 39.7122C5.13601 39.9437 5.0914 40.1749 4.99304 40.3885C4.89469 40.6021 4.74511 40.7927 4.55539 40.9463C4.08201 41.2736 3.49555 41.4336 2.90369 41.3969H0V35.2055H2.84423C3.40566 35.1713 3.96263 35.3167 4.41995 35.6168C4.60363 35.7576 4.74908 35.9355 4.84482 36.1365C4.94055 36.3376 4.98396 36.5562 4.97162 36.7753C4.98831 37.1168 4.87115 37.4526 4.64128 37.722C4.42059 37.968 4.1156 38.1385 3.77579 38.2059C4.16101 38.2703 4.50873 38.4579 4.7569 38.7352ZM1.35109 37.8006H2.56674C2.84303 37.8193 3.11743 37.7463 3.33974 37.5949C3.43101 37.5192 3.50203 37.4252 3.54728 37.3203C3.59254 37.2154 3.61082 37.1024 3.60071 36.99C3.60929 36.878 3.59063 36.7657 3.54607 36.661C3.50151 36.5564 3.43217 36.4622 3.34304 36.3851C3.11408 36.2294 2.83115 36.1553 2.54692 36.1764H1.35109V37.8006ZM3.45866 40.175C3.55623 40.0974 3.63292 40.0003 3.68277 39.8912C3.73262 39.7821 3.75428 39.6639 3.74606 39.5458C3.7535 39.4264 3.73085 39.307 3.67988 39.1969C3.6289 39.0868 3.55095 38.9888 3.45205 38.9107C3.21421 38.7492 2.9217 38.6699 2.6262 38.6868H1.35109V40.3897H2.64272C2.93345 40.4051 3.22122 40.3293 3.45866 40.175Z" />
                    <path
                        d="M10.5709 41.3969L8.98857 38.9772H8.39396V41.3969H7.03296V35.2055H9.60961C10.2591 35.164 10.9012 35.3524 11.4034 35.7318C11.7635 36.0678 11.9808 36.5106 12.0159 36.9803C12.051 37.45 11.9018 37.9158 11.595 38.2937C11.2771 38.6271 10.8428 38.8494 10.3661 38.9228L12.0508 41.3969H10.5709ZM8.39396 38.1333H9.50721C10.2802 38.1333 10.6667 37.8208 10.6667 37.1957C10.6746 37.0681 10.6534 36.9403 10.6045 36.8205C10.5556 36.7008 10.48 36.5916 10.3826 36.5C10.1383 36.314 9.82374 36.2238 9.50721 36.249H8.38075L8.39396 38.1333Z" />
                    <path
                        d="M18.0102 40.1506H15.2981L14.8191 41.3968H13.392L15.8828 35.2749H17.4255L19.9063 41.3968H18.4793L18.0102 40.1506ZM17.6468 39.213L16.6558 36.5997L15.6648 39.213H17.6468Z" />
                    <path
                        d="M27.3224 41.3969H25.9713L22.9421 37.1866V41.3969H21.5943V35.2054H22.9421L25.9713 39.44V35.2054H27.3224V41.3969Z" />
                    <path
                        d="M35.0326 39.9149C34.7532 40.3823 34.3276 40.7626 33.8103 41.0068C33.2222 41.2788 32.5695 41.4128 31.9109 41.397H29.506V35.2055H31.9109C32.5684 35.1898 33.2202 35.3206 33.8103 35.5866C34.3275 35.8253 34.7536 36.2017 35.0326 36.6664C35.3107 37.17 35.4556 37.7263 35.4556 38.2906C35.4556 38.8549 35.3107 39.4113 35.0326 39.9149ZM33.4866 39.7667C33.8722 39.3554 34.0842 38.8312 34.0842 38.2891C34.0842 37.7471 33.8722 37.2229 33.4866 36.8116C33.0205 36.439 32.4127 36.2499 31.7952 36.2853H30.8571V40.293H31.7952C32.4127 40.3283 33.0205 40.1392 33.4866 39.7667Z" />
                    <path
                        d="M18.8558 0.766724C18.8558 0.766724 36.2945 6.79486 35.9245 15.518V30.2722C35.9245 30.2722 18.4991 24.2411 18.8624 15.518L18.8558 0.766724Z" />
                    <path
                        d="M51.4603 26.8181C54.7538 24.7428 58.5633 23.4574 62.5399 23.0796V18.4609C57.9579 20.0779 54.0709 23.0098 51.4603 26.8181Z" />
                    <path
                        d="M49.4816 28.2095C52.1773 23.2396 56.8505 19.4046 62.54 17.4932V4.18469C62.54 4.18469 37.705 12.7717 38.2303 25.1939V46.2001C38.2303 46.2001 39.3369 45.816 41.0778 45.0961C41.0778 44.4247 41.0778 43.7472 41.1571 43.0666C41.6711 37.2996 44.6654 31.9556 49.4816 28.2095Z" />
                    <path
                        d="M47.1197 36.0131C47.2502 34.5563 47.5413 33.1152 47.9885 31.712C44.9896 34.9471 43.1734 38.9614 42.7956 43.1906C42.7592 43.5899 42.7394 43.9891 42.7295 44.4005C44.14 43.7804 45.7818 43.0061 47.5062 42.0957C47.0662 40.0948 46.936 38.0472 47.1197 36.0131Z" />
                    <path
                        d="M48.1075 36.0887C47.9421 37.929 48.0454 39.7813 48.4147 41.5966C55.1999 37.8793 62.8241 32.1355 62.5301 25.1939V24.589C57.6824 25.0856 53.1468 27.026 49.6204 30.112C48.7948 32.0244 48.2849 34.0387 48.1075 36.0887Z" />


                </g>
            </symbol>
            <symbol id="comptag" viewBox="0 0 94 45">
                <g>
                    <path
                        d="M47.425 21.4082C46.9819 20.8184 46.7699 20.1213 46.8203 19.4196V16.5364C46.8203 15.6526 47.0207 14.9809 47.4216 14.5214C47.8224 14.0619 48.511 13.8331 49.4871 13.8351C50.4044 13.8351 51.0555 14.0306 51.4405 14.4217C51.8605 14.9207 52.0648 15.5309 52.018 16.1463V16.8239H50.3772V16.1375C50.383 15.9129 50.3671 15.6882 50.3296 15.4659C50.306 15.3138 50.2234 15.1732 50.0952 15.067C49.9267 14.9525 49.7145 14.897 49.5007 14.9115C49.2759 14.897 49.0529 14.9556 48.8756 15.0758C48.7327 15.1935 48.6374 15.3477 48.6038 15.5157C48.5567 15.7511 48.5351 15.9897 48.5393 16.2285V19.7276C48.5134 20.0652 48.5858 20.403 48.7499 20.7102C48.8315 20.8141 48.9448 20.8965 49.0774 20.9483C49.2099 21.0001 49.3564 21.0192 49.5007 21.0035C49.7109 21.0184 49.9195 20.9615 50.0816 20.8451C50.2153 20.7305 50.3013 20.581 50.3262 20.4198C50.3645 20.1877 50.3816 19.9533 50.3772 19.7188V19.009H52.018V19.6572C52.0641 20.2988 51.8648 20.9356 51.4507 21.4698C51.0736 21.8981 50.4315 22.1122 49.4871 22.1122C48.5427 22.1122 47.8292 21.8834 47.425 21.4082Z" />
                    <path
                        d="M54.2569 21.4376C53.8424 20.9888 53.6352 20.3347 53.6352 19.4695V16.4367C53.6352 15.5803 53.8424 14.9321 54.2569 14.4921C54.6713 14.0521 55.3644 13.8331 56.3359 13.8351C57.3007 13.8351 57.9904 14.0541 58.4048 14.4921C58.8193 14.9321 59.0299 15.5803 59.0299 16.4367V19.4695C59.0299 20.3259 58.8193 20.9829 58.398 21.4346C57.9768 21.8863 57.2906 22.1122 56.3359 22.1122C55.3813 22.1122 54.6747 21.8834 54.2569 21.4376ZM57.1003 20.7102C57.2487 20.4291 57.3163 20.1212 57.2974 19.8127V16.0994C57.3164 15.7969 57.2499 15.4949 57.1037 15.2195C57.0205 15.1134 56.9043 15.0296 56.7686 14.9777C56.6328 14.9259 56.4829 14.908 56.3359 14.9262C56.1885 14.9085 56.0383 14.9265 55.9021 14.9783C55.7659 15.0301 55.6491 15.1136 55.5648 15.2195C55.4154 15.4941 55.3477 15.7965 55.3678 16.0994V19.8303C55.3471 20.1389 55.4148 20.4471 55.5648 20.7278C55.6604 20.8224 55.7785 20.8982 55.9109 20.9502C56.0433 21.0021 56.1871 21.029 56.3326 21.029C56.478 21.029 56.6218 21.0021 56.7542 20.9502C56.8866 20.8982 57.0047 20.8224 57.1003 20.7278V20.7102Z" />
                    <path
                        d="M61.0035 13.9236H62.7701L64.0984 19.5192L65.4573 13.9236H67.1763L67.3496 22.0003H66.079L65.9431 16.3871L64.6318 22.0003H63.6126L62.2537 16.3665L62.128 22.0003H60.8439L61.0035 13.9236Z" />
                    <path
                        d="M69.3302 13.9236H72.0819C73.6673 13.9236 74.4599 14.688 74.4599 16.217C74.4599 17.6814 73.6254 18.4126 71.9562 18.4106H71.0186V22.0003H69.32L69.3302 13.9236ZM71.6811 17.3754C71.8489 17.3938 72.0193 17.3805 72.1806 17.3364C72.3419 17.2924 72.4902 17.2186 72.6153 17.1203C72.8101 16.8475 72.896 16.5271 72.8599 16.2082C72.8688 15.9618 72.8414 15.7154 72.7783 15.475C72.7541 15.3947 72.7116 15.3194 72.6533 15.2534C72.5949 15.1874 72.522 15.1322 72.4386 15.0908C72.2028 14.9932 71.9422 14.9488 71.6811 14.9618H71.022V17.3754H71.6811Z" />
                    <path
                        d="M76.9094 13.9236H78.7337L80.6055 22.0003H79.0225L78.6522 20.138H77.0249L76.6444 22.0003H75.0376L76.9094 13.9236ZM78.4687 19.2025L77.8334 15.8123L77.1982 19.2025H78.4687Z" />
                    <path
                        d="M82.1173 13.9236H83.3063L85.5825 18.5309V13.9236H86.9923V22.0003H85.861L83.5713 17.1906V22.0003H82.1139L82.1173 13.9236Z" />
                    <path
                        d="M90.2945 18.9208L88.4022 13.9349H89.9955L91.1506 17.1376L92.2343 13.9349H93.7936L91.9251 18.9208V22.0003H90.2945V18.9208Z" />
                    <path d="M50.0477 25.5316V25.954H48.6617V29.2359H48.0807V25.954H46.6879V25.5316H50.0477Z" />
                    <path
                        d="M54.3927 29.2362H53.9442C53.8987 29.2386 53.8538 29.2261 53.8185 29.201C53.7846 29.1795 53.7587 29.15 53.7438 29.116L53.3429 28.2361H51.4201L51.0192 29.116C51.0078 29.1528 50.9869 29.1868 50.958 29.2157C50.9225 29.2402 50.8778 29.2527 50.8324 29.2509H50.3839L52.0825 25.5468H52.6737L54.3927 29.2362ZM51.5797 27.8607H53.1833L52.5038 26.3533C52.4537 26.2393 52.4117 26.1227 52.3781 26.0043C52.3543 26.0747 52.3339 26.1421 52.3136 26.2008L52.2524 26.3562L51.5797 27.8607Z" />
                    <path
                        d="M57.3211 28.8724C57.4275 28.8772 57.5341 28.8772 57.6404 28.8724C57.7323 28.8642 57.8232 28.8495 57.9122 28.8284C57.9954 28.8107 58.0772 28.7882 58.1568 28.7609C58.2316 28.7345 58.3063 28.7022 58.3844 28.67V27.8369H57.705C57.6882 27.8378 57.6714 27.8356 57.6556 27.8305C57.6398 27.8255 57.6254 27.8177 57.6133 27.8076C57.6021 27.7993 57.5933 27.7889 57.5874 27.7772C57.5815 27.7655 57.5787 27.7529 57.5793 27.7401V27.4556H58.8974V28.8753C58.7898 28.9417 58.6762 29.0006 58.5577 29.0513C58.4366 29.1029 58.3104 29.1451 58.1806 29.1774C58.0417 29.2127 57.8996 29.2382 57.7559 29.2537C57.5912 29.2695 57.4257 29.2773 57.26 29.2771C56.967 29.2793 56.6763 29.2325 56.4038 29.1393C56.1495 29.051 55.9184 28.9193 55.7244 28.7521C55.5353 28.5832 55.3864 28.3839 55.2862 28.1655C55.1791 27.9199 55.1261 27.6593 55.1299 27.397C55.1263 27.133 55.1781 26.8706 55.2828 26.6226C55.3805 26.4031 55.5297 26.2033 55.721 26.036C55.9149 25.8693 56.1461 25.7386 56.4005 25.6517C56.6914 25.5572 57.0001 25.5105 57.3109 25.5138C57.4691 25.5137 57.627 25.5245 57.7831 25.5461C57.9212 25.5655 58.0567 25.597 58.1874 25.64C58.3062 25.6785 58.4201 25.7277 58.5271 25.7866C58.6312 25.8445 58.7301 25.9092 58.8227 25.9802L58.6596 26.209C58.6468 26.2299 58.6278 26.2475 58.6045 26.2598C58.5812 26.2722 58.5545 26.279 58.5271 26.2794C58.4895 26.2784 58.453 26.2682 58.4218 26.2501C58.3708 26.2266 58.3165 26.1973 58.2553 26.1621C58.1831 26.123 58.1069 26.0896 58.0277 26.0624C57.9265 26.0273 57.8219 25.9998 57.7152 25.9802C57.5729 25.9576 57.4284 25.9468 57.2837 25.948C57.0596 25.9458 56.8371 25.9807 56.6281 26.0506C56.439 26.1161 56.2686 26.2162 56.1287 26.3439C55.9879 26.4771 55.8803 26.6339 55.8127 26.8045C55.661 27.2056 55.661 27.6381 55.8127 28.0393C55.8871 28.2135 56.0028 28.3724 56.1525 28.5057C56.2918 28.6328 56.4609 28.7328 56.6485 28.799C56.8645 28.8631 57.0934 28.888 57.3211 28.8724Z" />
                    <path d="M62.7362 28.8136H64.5911V29.2359H62.1689V25.5316H62.7498L62.7362 28.8136Z" />
                    <path d="M66.5208 29.2359H65.9398V25.5316H66.5208V29.2359Z" />
                    <path
                        d="M68.6814 25.5492C68.7159 25.5662 68.746 25.5892 68.7697 25.6167L71.253 28.409C71.2497 28.3651 71.2497 28.321 71.253 28.277C71.253 28.236 71.253 28.1949 71.253 28.1568V25.517H71.7592V29.2362H71.4671C71.4238 29.2392 71.3804 29.2321 71.3414 29.2156C71.3061 29.1972 71.275 29.1733 71.2496 29.1452L68.7697 26.3558C68.7697 26.3998 68.7697 26.4409 68.7697 26.482C68.7697 26.523 68.7697 26.5612 68.7697 26.5964V29.2362H68.2839V25.5316H68.5863C68.6191 25.5317 68.6515 25.5377 68.6814 25.5492Z" />
                    <path
                        d="M76.0364 25.5316V25.9393H73.9777V27.1624H75.6457V27.5554H73.9777V28.8195H76.0364V29.2272H73.3798V25.5316H76.0364Z" />
                    <path
                        d="M15.1617 2.65551L40.9568 8.97882V31.1368L15.1617 24.8164V2.65551ZM13.5073 0.766724V25.8928L42.6079 33.0285V7.90538L13.5073 0.766724Z" />
                    <path d="M29.1039 44.6922L0 37.5505V12.4271L29.1039 19.5659V44.6922Z" />
                    <path
                        d="M13.9897 2.37099L39.4484 8.615L28.6215 17.9649L3.1594 11.7179L13.9897 2.37099ZM13.5073 0.766724L0 12.4277L29.1039 19.5662L42.6078 7.90525L13.5073 0.766724Z" />
                    <path d="M30.7414 43.2788L42.6078 33.0315L30.7414 30.1193V43.2788Z" />

                </g>
            </symbol>
            <!--                         <symbol id="___" viewBox="0 0 41 47">
                <g>

                </g>
            </symbol> -->

</svg>